<?xml version="1.0" encoding="UTF-8"?>
<svg version="1.1" xmlns="http://www.w3.org/2000/svg" width="2000" height="2000">
<path d="M0 0 C59.4 0 118.8 0 180 0 C180 0.66 180 1.32 180 2 C180.85722656 1.98839844 181.71445312 1.97679687 182.59765625 1.96484375 C191.84301822 1.89188148 199.20945681 2.44871468 207.765625 6.0625 C210.10287673 7.07620833 210.10287673 7.07620833 213 8 C213 8.66 213 9.32 213 10 C214.65 10.33 216.3 10.66 218 11 C218 11.66 218 12.32 218 13 C219.65 13.33 221.3 13.66 223 14 C223.0825 14.61875 223.165 15.2375 223.25 15.875 C223.78810733 18.18346804 223.78810733 18.18346804 226 19 C228 20 228 20 228.75 22.125 C228.8325 22.74375 228.915 23.3625 229 24 C229.66 24 230.32 24 231 24 C231.33 25.65 231.66 27.3 232 29 C232.66 29 233.32 29 234 29 C234.33 31.64 234.66 34.28 235 37 C235.66 37 236.32 37 237 37 C237 38.98 237 40.96 237 43 C237.66 43 238.32 43 239 43 C240.14645035 52.23819612 240.15346473 61.44396172 240.13037109 70.7355957 C240.12497511 73.32444008 240.13036337 75.91311376 240.13671875 78.50195312 C240.1360585 80.16406288 240.13477843 81.82617253 240.1328125 83.48828125 C240.13483673 84.25400955 240.13686096 85.01973785 240.13894653 85.80867004 C240.12081739 89.97741661 239.81475555 93.91044494 239 98 C238.34 98 237.68 98 237 98 C237 99.65 237 101.3 237 103 C236.34 103 235.68 103 235 103 C234.67 104.98 234.34 106.96 234 109 C233.34 109 232.68 109 232 109 C231.67 110.65 231.34 112.3 231 114 C230.34 114 229.68 114 229 114 C228.67 114.99 228.34 115.98 228 117 C227.34 117 226.68 117 226 117 C226 118.65 226 120.3 226 122 C226.66 122 227.32 122 228 122 C231.50188264 125.0560196 234.2337919 128.2480676 234.875 132.9375 C234.91625 133.948125 234.9575 134.95875 235 136 C235.66 136 236.32 136 237 136 C237 162.73 237 189.46 237 217 C219.51 217 202.02 217 184 217 C182.48878976 213.97757952 182.82077909 210.83847169 182.79467773 207.52099609 C182.78477814 206.75017197 182.77487854 205.97934784 182.76467896 205.18516541 C182.7330317 202.6312876 182.70829383 200.07739118 182.68359375 197.5234375 C182.663027 195.75509145 182.64203061 193.98675035 182.62062073 192.21841431 C182.56537119 187.55940757 182.51597464 182.90035625 182.46777344 178.24127197 C182.41757944 173.48893253 182.36188242 168.73665798 182.30664062 163.984375 C182.19902381 154.65630541 182.09758667 145.32817953 182 136 C178.4325326 134.38504541 175.63681766 133.7454759 171.72917175 133.7215271 C170.16645035 133.70478188 170.16645035 133.70478188 168.57215881 133.68769836 C167.43999435 133.68553818 166.3078299 133.68337799 165.14135742 133.68115234 C163.34072845 133.66608391 163.34072845 133.66608391 161.50372314 133.65071106 C158.22105788 133.62515213 154.93848663 133.60827685 151.65575194 133.59528303 C148.22173018 133.57963019 144.78779552 133.55284686 141.35383606 133.5272522 C134.85520539 133.48050246 128.35655827 133.44373999 121.8578456 133.41057932 C113.73134219 133.36857747 105.6049368 133.31322007 97.47851562 133.2578125 C82.98573089 133.15905669 68.49292332 133.08048094 54 133 C54 160.72 54 188.44 54 217 C36.18 217 18.36 217 0 217 C0 145.39 0 73.78 0 0 Z M54 51 C54 61.89 54 72.78 54 84 C94.26 84 134.52 84 176 84 C176 83.34 176 82.68 176 82 C176.928125 81.938125 177.85625 81.87625 178.8125 81.8125 C182.06574791 81.31193679 182.06574791 81.31193679 183.67578125 79.015625 C185.47731935 74.91300726 185.43935963 71.36758757 185.375 66.9375 C185.39240234 65.73383789 185.39240234 65.73383789 185.41015625 64.50585938 C185.39239951 60.93971379 185.33364632 58.61044228 183.6015625 55.44140625 C182.11134895 53.77701176 182.11134895 53.77701176 180 54 C180 53.34 180 52.68 180 52 C177.01897848 51.00632616 175.08016225 50.87657476 171.96968079 50.87974548 C170.41108337 50.87768349 170.41108337 50.87768349 168.82099915 50.87557983 C167.68164413 50.87917511 166.54228912 50.88277039 165.3684082 50.88647461 C164.16828094 50.88632858 162.96815369 50.88618256 161.73165894 50.8860321 C158.44059468 50.8866098 155.149593 50.89162846 151.85853982 50.89860606 C148.41921946 50.9048532 144.97989828 50.90544448 141.54057312 50.90663147 C135.02766859 50.90974076 128.51478083 50.91794875 122.00188369 50.92798096 C114.5872054 50.93915455 107.17252632 50.94465569 99.75784171 50.94967639 C84.50521644 50.96013169 69.25261427 50.9784722 54 51 Z " fill="#052024" transform="translate(653,891)"/>
<path d="M0 0 C69.96 0 139.92 0 212 0 C212 16.83 212 33.66 212 51 C160.19 51 108.38 51 55 51 C55 61.89 55 72.78 55 84 C90.97 84 126.94 84 164 84 C164 100.17 164 116.34 164 133 C128.03 133 92.06 133 55 133 C55 143.89 55 154.78 55 166 C107.14 166 159.28 166 213 166 C213 182.83 213 199.66 213 217 C142.71 217 72.42 217 0 217 C0 145.39 0 73.78 0 0 Z " fill="#052024" transform="translate(1501,891)"/>
<path d="M0 0 C59.4 0 118.8 0 180 0 C180 0.66 180 1.32 180 2 C180.57105469 1.95359375 181.14210938 1.9071875 181.73046875 1.859375 C190.62963194 1.46322783 199.14978187 3.79046274 207 8 C207 8.66 207 9.32 207 10 C208.65 10.33 210.3 10.66 212 11 C212 11.66 212 12.32 212 13 C213.98 13.495 213.98 13.495 216 14 C216 14.66 216 15.32 216 16 C216.66 16 217.32 16 218 16 C218 16.66 218 17.32 218 18 C218.99 18.33 219.98 18.66 221 19 C221 19.66 221 20.32 221 21 C221.99 21.33 222.98 21.66 224 22 C224 22.66 224 23.32 224 24 C224.99 24.33 225.98 24.66 227 25 C227 26.32 227 27.64 227 29 C227.99 29.33 228.98 29.66 230 30 C231.64820195 32.60242414 232 33.86248779 232 37 C232.66 37 233.32 37 234 37 C234.33 39.97 234.66 42.94 235 46 C235.66 46 236.32 46 237 46 C238.20568053 50.67201205 238.09382426 55.21496292 238 60 C238.66 60 239.32 60 240 60 C240 111.81 240 163.62 240 217 C221.85 217 203.7 217 185 217 C185 165.85 185 114.7 185 62 C184.34 62 183.68 62 183 62 C182.67 59.69 182.34 57.38 182 55 C180.35 54.67 178.7 54.34 177 54 C177 53.34 177 52.68 177 52 C116.61 51.505 116.61 51.505 55 51 C55 105.78 55 160.56 55 217 C36.85 217 18.7 217 0 217 C0 145.39 0 73.78 0 0 Z " fill="#052024" transform="translate(1228,891)"/>
<path d="M0 0 C78.21 0 156.42 0 237 0 C237 16.83 237 33.66 237 51 C176.94 51 116.88 51 55 51 C55 61.89 55 72.78 55 84 C106.81 84 158.62 84 212 84 C212 100.17 212 116.34 212 133 C160.19 133 108.38 133 55 133 C55 160.72 55 188.44 55 217 C36.85 217 18.7 217 0 217 C0 145.39 0 73.78 0 0 Z " fill="#052024" transform="translate(53,891)"/>
<path d="M0 0 C65.01 0 130.02 0 197 0 C197 16.83 197 33.66 197 51 C166.31 51 135.62 51 104 51 C104 105.78 104 160.56 104 217 C85.85 217 67.7 217 49 217 C49 162.22 49 107.44 49 51 C32.83 51 16.66 51 0 51 C0 34.17 0 17.34 0 0 Z " fill="#052024" transform="translate(917,891)"/>
<path d="M0 0 C65.01 0 130.02 0 197 0 C197 16.83 197 33.66 197 51 C165.65 51 134.3 51 102 51 C102 105.78 102 160.56 102 217 C84.51 217 67.02 217 49 217 C49 162.22 49 107.44 49 51 C32.83 51 16.66 51 0 51 C0 34.17 0 17.34 0 0 Z " fill="#052024" transform="translate(1737,891)"/>
<path d="M0 0 C18.15 0 36.3 0 55 0 C55 71.61 55 143.22 55 217 C36.85 217 18.7 217 0 217 C0 145.39 0 73.78 0 0 Z " fill="#052024" transform="translate(1137,891)"/>
<path d="M0 0 C29.04 0 58.08 0 88 0 C88 19.8 88 39.6 88 60 C58.96 60 29.92 60 0 60 C0 40.2 0 20.4 0 0 Z " fill="#485A63" transform="translate(420,1049)"/>
<path d="M0 0 C29.04 0 58.08 0 88 0 C88 19.8 88 39.6 88 60 C58.96 60 29.92 60 0 60 C0 40.2 0 20.4 0 0 Z " fill="#485A63" transform="translate(529,969)"/>
<path d="M0 0 C29.04 0 58.08 0 88 0 C88 19.8 88 39.6 88 60 C58.96 60 29.92 60 0 60 C0 40.2 0 20.4 0 0 Z " fill="#485A63" transform="translate(311,969)"/>
<path d="M0 0 C29.04 0 58.08 0 88 0 C88 19.14 88 38.28 88 58 C58.96 58 29.92 58 0 58 C0 38.86 0 19.72 0 0 Z " fill="#485A63" transform="translate(420,890)"/>
<path d="M0 0 C29.04 0 58.08 0 88 0 C88 19.8 88 39.6 88 60 C78.656875 60.020625 69.31375 60.04125 59.6875 60.0625 C55.26476685 60.07615601 55.26476685 60.07615601 50.75268555 60.09008789 C48.42236375 60.0930078 46.09204143 60.09555618 43.76171875 60.09765625 C41.93864197 60.1053302 41.93864197 60.1053302 40.07873535 60.11315918 C38.92184204 60.11328003 37.76494873 60.11340088 36.57299805 60.11352539 C35.567061 60.115746 34.56112396 60.11796661 33.52470398 60.12025452 C31 60 31 60 28 59 C28 58.34 28 57.68 28 57 C26.02 56.67 24.04 56.34 22 56 C22 55.34 22 54.68 22 54 C20.515 53.505 20.515 53.505 19 53 C19 52.34 19 51.68 19 51 C18.34 51 17.68 51 17 51 C17 50.34 17 49.68 17 49 C15.515 48.505 15.515 48.505 14 48 C14 47.34 14 46.68 14 46 C13.34 46 12.68 46 12 46 C11.67 44.35 11.34 42.7 11 41 C10.34 41 9.68 41 9 41 C8.67 39.02 8.34 37.04 8 35 C7.34 35 6.68 35 6 35 C6 34.01 6 33.02 6 32 C5.34 32 4.68 32 4 32 C3.67 28.7 3.34 25.4 3 22 C2.34 22 1.68 22 1 22 C0 16 0 16 0 0 Z " fill="#485A63" transform="translate(311,1049)"/>
<path d="M0 0 C29.04 0 58.08 0 88 0 C88 6.27 88 12.54 88 19 C87.34 19 86.68 19 86 19 C85.67 22.3 85.34 25.6 85 29 C84.34 29 83.68 29 83 29 C82.814375 30.3921875 82.814375 30.3921875 82.625 31.8125 C82 35 82 35 80 38 C79.34 38 78.68 38 78 38 C77.9071875 39.3303125 77.9071875 39.3303125 77.8125 40.6875 C76.81065479 44.77194586 75.19904189 46.347136 72 49 C71.34 49 70.68 49 70 49 C69.95875 49.5775 69.9175 50.155 69.875 50.75 C68.54546871 54.16879475 66.10333371 55.22666645 63 57 C62.34 57 61.68 57 61 57 C61 57.66 61 58.32 61 59 C57.36523699 59.83592899 54.0180922 60.121937 50.29174805 60.11352539 C49.15539917 60.11340454 48.01905029 60.11328369 46.8482666 60.11315918 C45.66470581 60.10804321 44.48114502 60.10292725 43.26171875 60.09765625 C42.16589478 60.09664917 41.0700708 60.09564209 39.94104004 60.09460449 C35.85651601 60.0893815 31.77200693 60.07542023 27.6875 60.0625 C18.550625 60.041875 9.41375 60.02125 0 60 C0 40.2 0 20.4 0 0 Z " fill="#485A63" transform="translate(529,1049)"/>
<path d="M0 0 C9.508125 -0.020625 19.01625 -0.04125 28.8125 -0.0625 C31.8131958 -0.071604 34.8138916 -0.08070801 37.90551758 -0.09008789 C40.27685501 -0.09300777 42.64819295 -0.09555616 45.01953125 -0.09765625 C46.25650757 -0.10277222 47.49348389 -0.10788818 48.76794434 -0.11315918 C50.5337384 -0.11334045 50.5337384 -0.11334045 52.33520508 -0.11352539 C53.35890701 -0.115746 54.38260895 -0.11796661 55.43733215 -0.12025452 C58 0 58 0 61 1 C61 1.66 61 2.32 61 3 C62.11375 3.0928125 62.11375 3.0928125 63.25 3.1875 C66.85122777 4.25149912 67.96756296 5.91370672 70 9 C70 9.66 70 10.32 70 11 C70.5775 11.020625 71.155 11.04125 71.75 11.0625 C75.35272329 12.56363471 76.18606819 15.61399396 78 19 C78.66 19.33 79.32 19.66 80 20 C81.95465884 23.98449687 83 26.52274716 83 31 C83.66 31 84.32 31 85 31 C85.495 35.95 85.495 35.95 86 41 C86.66 41 87.32 41 88 41 C88 46.61 88 52.22 88 58 C58.96 58 29.92 58 0 58 C0 38.86 0 19.72 0 0 Z " fill="#485A63" transform="translate(529,890)"/>
<path d="M0 0 C1.17719604 0.00012085 2.35439209 0.0002417 3.56726074 0.00036621 C5.42272522 0.00804016 5.42272522 0.00804016 7.31567383 0.01586914 C9.02140564 0.01737976 9.02140564 0.01737976 10.76159668 0.0189209 C15.01530972 0.02415859 19.26900839 0.03811983 23.52270508 0.05102539 C33.03083008 0.07165039 42.53895508 0.09227539 52.33520508 0.11352539 C52.33520508 19.25352539 52.33520508 38.39352539 52.33520508 58.11352539 C23.29520508 58.11352539 -5.74479492 58.11352539 -35.66479492 58.11352539 C-35.66479492 44.11352539 -35.66479492 44.11352539 -34.66479492 38.11352539 C-34.00479492 38.11352539 -33.34479492 38.11352539 -32.66479492 38.11352539 C-32.68541992 37.02040039 -32.70604492 35.92727539 -32.72729492 34.80102539 C-32.66479492 31.11352539 -32.66479492 31.11352539 -31.66479492 28.11352539 C-31.00479492 28.11352539 -30.34479492 28.11352539 -29.66479492 28.11352539 C-29.66479492 27.12352539 -29.66479492 26.13352539 -29.66479492 25.11352539 C-29.00479492 25.11352539 -28.34479492 25.11352539 -27.66479492 25.11352539 C-27.33479492 23.13352539 -27.00479492 21.15352539 -26.66479492 19.11352539 C-26.00479492 19.11352539 -25.34479492 19.11352539 -24.66479492 19.11352539 C-24.33479492 17.46352539 -24.00479492 15.81352539 -23.66479492 14.11352539 C-23.00479492 14.11352539 -22.34479492 14.11352539 -21.66479492 14.11352539 C-21.33479492 13.12352539 -21.00479492 12.13352539 -20.66479492 11.11352539 C-20.00479492 11.11352539 -19.34479492 11.11352539 -18.66479492 11.11352539 C-18.66479492 10.45352539 -18.66479492 9.79352539 -18.66479492 9.11352539 C-18.00479492 9.11352539 -17.34479492 9.11352539 -16.66479492 9.11352539 C-16.33479492 8.12352539 -16.00479492 7.13352539 -15.66479492 6.11352539 C-15.00479492 6.11352539 -14.34479492 6.11352539 -13.66479492 6.11352539 C-13.66479492 5.45352539 -13.66479492 4.79352539 -13.66479492 4.11352539 C-12.01479492 3.78352539 -10.36479492 3.45352539 -8.66479492 3.11352539 C-8.66479492 2.45352539 -8.66479492 1.79352539 -8.66479492 1.11352539 C-5.51144666 0.0624093 -3.30967209 -0.00717933 0 0 Z " fill="#485A63" transform="translate(346.664794921875,889.886474609375)"/>
<path d="M0 0 C0.763125 -0.00386719 1.52625 -0.00773437 2.3125 -0.01171875 C5.58851362 -0.00597136 8.24637676 0.08212559 11.375 1.125 C11.375 1.785 11.375 2.445 11.375 3.125 C12.798125 3.24875 12.798125 3.24875 14.25 3.375 C17.375 4.125 17.375 4.125 18.75 6.1875 C18.95625 6.826875 19.1625 7.46625 19.375 8.125 C20.035 8.125 20.695 8.125 21.375 8.125 C21.87 9.61 21.87 9.61 22.375 11.125 C23.035 11.455 23.695 11.785 24.375 12.125 C28.5033648 18.68181469 28.05961724 27.84614225 26.875 35.25 C26.71 35.86875 26.545 36.4875 26.375 37.125 C25.715 37.125 25.055 37.125 24.375 37.125 C24.375 38.445 24.375 39.765 24.375 41.125 C23.715 41.125 23.055 41.125 22.375 41.125 C22.045 42.445 21.715 43.765 21.375 45.125 C20.715 45.125 20.055 45.125 19.375 45.125 C19.1275 45.764375 18.88 46.40375 18.625 47.0625 C17.375 49.125 17.375 49.125 15.25 49.875 C14.63125 49.9575 14.0125 50.04 13.375 50.125 C13.375 50.785 13.375 51.445 13.375 52.125 C10.47555169 53.09148277 8.6091852 53.25378732 5.59375 53.2578125 C4.20736328 53.25974609 4.20736328 53.25974609 2.79296875 53.26171875 C1.83003906 53.25785156 0.86710937 53.25398438 -0.125 53.25 C-1.56939453 53.25580078 -1.56939453 53.25580078 -3.04296875 53.26171875 C-3.96722656 53.26042969 -4.89148437 53.25914063 -5.84375 53.2578125 C-7.1112207 53.25612061 -7.1112207 53.25612061 -8.40429688 53.25439453 C-10.625 53.125 -10.625 53.125 -13.625 52.125 C-13.625 51.465 -13.625 50.805 -13.625 50.125 C-14.24375 50.0425 -14.8625 49.96 -15.5 49.875 C-17.625 49.125 -17.625 49.125 -18.6875 47.125 C-18.996875 46.465 -19.30625 45.805 -19.625 45.125 C-20.615 44.795 -21.605 44.465 -22.625 44.125 C-22.625 43.465 -22.625 42.805 -22.625 42.125 C-23.285 42.125 -23.945 42.125 -24.625 42.125 C-24.955 39.485 -25.285 36.845 -25.625 34.125 C-26.285 34.125 -26.945 34.125 -27.625 34.125 C-27.625 29.505 -27.625 24.885 -27.625 20.125 C-26.965 20.125 -26.305 20.125 -25.625 20.125 C-25.295 17.485 -24.965 14.845 -24.625 12.125 C-23.965 12.125 -23.305 12.125 -22.625 12.125 C-22.5425 11.5475 -22.46 10.97 -22.375 10.375 C-21.4016189 7.4548567 -19.94886725 6.10712207 -17.625 4.125 C-16.635 3.795 -15.645 3.465 -14.625 3.125 C-14.295 2.465 -13.965 1.805 -13.625 1.125 C-9.18710366 -0.22864406 -4.59487731 -0.02352326 0 0 Z M-12.625 10.125 C-13.19347656 10.48722656 -13.76195312 10.84945313 -14.34765625 11.22265625 C-16.74684768 12.89585122 -18.41011525 14.36583481 -19.21875 17.22265625 C-19.56485861 19.67564628 -19.56485861 19.67564628 -19.625 23.125 C-20.285 23.125 -20.945 23.125 -21.625 23.125 C-21.625 25.765 -21.625 28.405 -21.625 31.125 C-20.965 31.125 -20.305 31.125 -19.625 31.125 C-19.295 33.435 -18.965 35.745 -18.625 38.125 C-17.965 38.125 -17.305 38.125 -16.625 38.125 C-16.295 39.445 -15.965 40.765 -15.625 42.125 C-14.965 42.125 -14.305 42.125 -13.625 42.125 C-13.625 42.785 -13.625 43.445 -13.625 44.125 C-11.645 44.455 -9.665 44.785 -7.625 45.125 C-7.625 45.785 -7.625 46.445 -7.625 47.125 C-5.315 47.125 -3.005 47.125 -0.625 47.125 C-0.295 47.785 0.035 48.445 0.375 49.125 C0.375 48.465 0.375 47.805 0.375 47.125 C2.685 47.125 4.995 47.125 7.375 47.125 C7.375 46.465 7.375 45.805 7.375 45.125 C9.85 44.63 9.85 44.63 12.375 44.125 C12.375 43.465 12.375 42.805 12.375 42.125 C10.725 42.125 9.075 42.125 7.375 42.125 C7.375 40.145 7.375 38.165 7.375 36.125 C6.715 36.125 6.055 36.125 5.375 36.125 C5.395625 35.320625 5.41625 34.51625 5.4375 33.6875 C5.67133621 31.19145115 5.67133621 31.19145115 4.375 30.125 C1.70441149 29.98384839 -0.94932238 30.08252893 -3.625 30.125 C-3.955 33.755 -4.285 37.385 -4.625 41.125 C-8.09 41.62 -8.09 41.62 -11.625 42.125 C-11.625 31.895 -11.625 21.665 -11.625 11.125 C-4.365 11.455 2.895 11.785 10.375 12.125 C10.87 13.115 10.87 13.115 11.375 14.125 C12.035 14.125 12.695 14.125 13.375 14.125 C13.375 17.755 13.375 21.385 13.375 25.125 C12.715 25.125 12.055 25.125 11.375 25.125 C11.375 26.115 11.375 27.105 11.375 28.125 C12.035 28.125 12.695 28.125 13.375 28.125 C13.35179687 28.81207031 13.32859375 29.49914063 13.3046875 30.20703125 C13.28664063 31.10808594 13.26859375 32.00914063 13.25 32.9375 C13.22679687 33.83082031 13.20359375 34.72414063 13.1796875 35.64453125 C13.19214173 38.37902714 13.19214173 38.37902714 15.375 41.125 C17.4093459 39.70980285 18.27910393 38.57517877 18.796875 36.14453125 C19.03773952 34.14323046 19.21032741 32.1340056 19.375 30.125 C20.035 30.125 20.695 30.125 21.375 30.125 C21.375 27.815 21.375 25.505 21.375 23.125 C20.715 23.125 20.055 23.125 19.375 23.125 C19.354375 21.92875 19.33375 20.7325 19.3125 19.5 C18.76013447 14.86672497 16.70494779 12.98895823 13.1640625 10.15625 C11.28597927 8.87530255 11.28597927 8.87530255 8.375 9.125 C8.375 8.465 8.375 7.805 8.375 7.125 C0.70199587 4.56733196 -6.1614284 5.43574218 -12.625 10.125 Z M-3.625 17.125 C-3.625 19.105 -3.625 21.085 -3.625 23.125 C-0.985 23.125 1.655 23.125 4.375 23.125 C4.705 22.135 5.035 21.145 5.375 20.125 C6.035 20.125 6.695 20.125 7.375 20.125 C7.375 19.465 7.375 18.805 7.375 18.125 C4.96954362 16.92227181 3.42503047 17.02428528 0.75 17.0625 C-0.06726562 17.07152344 -0.88453125 17.08054687 -1.7265625 17.08984375 C-2.35304688 17.10144531 -2.97953125 17.11304688 -3.625 17.125 Z " fill="#041D20" transform="translate(1920.625,1052.875)"/>
</svg>
